<?xml version="1.0" encoding="UTF-8" standalone="no"?>
<svg
   xmlns:dc="http://purl.org/dc/elements/1.1/"
   xmlns:cc="http://creativecommons.org/ns#"
   xmlns:rdf="http://www.w3.org/1999/02/22-rdf-syntax-ns#"
   xmlns:svg="http://www.w3.org/2000/svg"
   xmlns="http://www.w3.org/2000/svg"
   xmlns:xlink="http://www.w3.org/1999/xlink"
   xmlns:sodipodi="http://sodipodi.sourceforge.net/DTD/sodipodi-0.dtd"
   xmlns:inkscape="http://www.inkscape.org/namespaces/inkscape"
   width="197.02396mm"
   height="117.21915mm"
   viewBox="0 0 197.02396 117.21915"
   version="1.1"
   id="svg8"
   inkscape:version="1.0.1 (3bc2e813f5, 2020-09-07)"
   sodipodi:docname="signup.svg">
  <defs
     id="defs2">
    <style
       id="style2304">.cls-1,.cls-11,.cls-13,.cls-2,.cls-3{fill:none;stroke-linecap:round;}.cls-1,.cls-13,.cls-2{stroke:#000;}.cls-1,.cls-2,.cls-3{stroke-miterlimit:10;}.cls-1{stroke-width:4px;}.cls-13,.cls-2{stroke-width:2px;}.cls-3{stroke:#1f161e;}.cls-4{fill:#fbdc8e;}.cls-5{fill:#969696;}.cls-6{fill:#ab8de5;}.cls-7{fill:#78e5e1;}.cls-8{fill:#d8d8d8;}.cls-9{fill:#64ccc4;}.cls-10,.cls-12{fill:#fff;}.cls-11{stroke:#969696;stroke-width:0.82px;}.cls-11,.cls-13{stroke-linejoin:round;}.cls-12{font-size:7.3px;font-family:SofiaPro-Bold, Sofia Pro;font-weight:700;}.cls-14{fill:#1f161e;}.cls-15{fill:#55b79d;}.cls-16{fill:#f8cdba;}.cls-17{fill:#fa9e9f;}</style>
    <linearGradient
       id="ae928bff-3575-4039-8931-1ea5500585a1"
       x1="10.0701"
       y1="883.09802"
       x2="23.03018"
       y2="883.09802"
       gradientTransform="matrix(46.94042,0,0,-24.44727,-11.22942,22034.262)"
       gradientUnits="userSpaceOnUse">
      <stop
         offset="0"
         stop-color="#2d6dd0"
         id="stop3077" />
      <stop
         offset="0.99"
         stop-color="#6c139c"
         id="stop3079" />
    </linearGradient>
    <linearGradient
       id="ab16e020-95e2-4019-a7f2-352f369779da"
       x1="14.38337"
       y1="889.08948"
       x2="32.06147"
       y2="889.08948"
       gradientTransform="matrix(34.41098,0,0,-37.39629,-33.41135,33695.057)"
       xlink:href="#ae928bff-3575-4039-8931-1ea5500585a1" />
  </defs>
  <sodipodi:namedview
     id="base"
     pagecolor="#ffffff"
     bordercolor="#666666"
     borderopacity="1.0"
     inkscape:pageopacity="0.0"
     inkscape:pageshadow="2"
     inkscape:zoom="0.98994949"
     inkscape:cx="429.72713"
     inkscape:cy="252.28307"
     inkscape:document-units="mm"
     inkscape:current-layer="Layer_2-2"
     inkscape:document-rotation="0"
     showgrid="false"
     inkscape:window-width="1920"
     inkscape:window-height="1026"
     inkscape:window-x="0"
     inkscape:window-y="0"
     inkscape:window-maximized="1" />
  <metadata
     id="metadata5">
    <rdf:RDF>
      <cc:Work
         rdf:about="">
        <dc:format>image/svg+xml</dc:format>
        <dc:type
           rdf:resource="http://purl.org/dc/dcmitype/StillImage" />
        <dc:title />
      </cc:Work>
    </rdf:RDF>
  </metadata>
  <g
     inkscape:label="Layer 1"
     inkscape:groupmode="layer"
     id="layer1"
     transform="translate(-7.9118517,-107.90951)">
    <g
       id="Layer_2-2"
       data-name="Layer 2"
       transform="matrix(0.26458333,0,0,0.26458333,25.671033,50.333772)">
      <ellipse
         cx="264.91617"
         cy="542.67914"
         rx="63.110001"
         ry="13.95"
         id="ellipse2310" />
      <line
         class="cls-1"
         x1="264.91617"
         y1="542.67914"
         x2="229.46616"
         y2="653.62909"
         id="line2312" />
      <line
         class="cls-1"
         x1="264.91617"
         y1="542.67914"
         x2="300.36615"
         y2="653.62909"
         id="line2314" />
      <line
         class="cls-2"
         x1="241.10617"
         y1="617.1991"
         x2="280.62616"
         y2="591.85913"
         id="line2316" />
      <line
         class="cls-2"
         x1="249.04617"
         y1="591.85913"
         x2="288.57617"
         y2="617.1991"
         id="line2318" />
      <path
         class="cls-3"
         d="m 327.02615,422.5791 c -0.16,4.92 -0.09,22.15 -0.9,29.52"
         id="path2320" />
      <path
         class="cls-4"
         d="m 542.24615,407.7191 h 6 a 2.39,2.39 0 0 0 2.38,-2.38 v -36.88 a 2.35,2.35 0 0 0 -0.7,-1.68 l -7.58,-7.58 a 2.37,2.37 0 0 0 -1.68,-0.7 h -22.39 a 2.39,2.39 0 0 0 -2.38,2.38 v 3.56"
         id="path2326" />
      <path
         d="m 20.936152,495.7191 c 19,3.6 15.61,117 -20.86000031,110.14 -34.43999969,-6.54 -2.31999999,-114.55 20.86000031,-110.14 z"
         id="path2328" />
      <path
         class="cls-4"
         d="m -62.483848,509.7191 c 15.12,-8.56 78.41,71.08 49.46,87.46 -27.35,15.54 -67.87,-77.02 -49.46,-87.46 z"
         id="path2330" />
      <path
         class="cls-5"
         d="m 14.566152,660.6391 h -38.18 a 6.25,6.25 0 0 1 -6.21,-5.56 l -4.82,-43.28 a 6.26,6.26 0 0 1 6.21,-7 h 47.62 a 6.25,6.25 0 0 1 6.21,6.92 l -4.61,43.28 a 6.26,6.26 0 0 1 -6.22,5.64 z"
         id="path2332" />
      <path
         class="cls-6"
         d="m 31.666152,451.5591 c 14.47,4.2 3.38,91.73 -24.3300002,83.67 -26.1599998,-7.6 6.7200002,-88.79 24.3300002,-83.67 z"
         id="path2334" />
      <path
         class="cls-4"
         d="m 55.526152,521.1991 c 10,8.62 -30.68,74.56 -49.9000003,58 -18.1499997,-15.57 37.6900003,-68.48 49.9000003,-58 z"
         id="path2336" />
      <path
         class="cls-7"
         d="m -4.4238483,460.6591 c 21.6600003,0 41.4900003,138.3 0,138.3 -39.1799997,0 -26.3699997,-138.3 0,-138.3 z"
         id="path2338" />
      <rect
         class="cls-8"
         x="-46.663849"
         y="595.43909"
         width="84.300003"
         height="15.48"
         rx="4.0500002"
         ry="4.0500002"
         id="rect2340" />
      <path
         class="cls-8"
         d="m 532.16615,364.4391 h -22 a 2.68,2.68 0 0 0 -2.68,2.69 v 43.8 a 2.69,2.69 0 0 0 2.68,2.69 h 29.39 a 2.69,2.69 0 0 0 2.68,-2.69 v -36.4 a 2.68,2.68 0 0 0 -0.78,-1.9 l -7.4,-7.4 a 2.68,2.68 0 0 0 -1.89,-0.79 z"
         id="path2342" />
      <path
         class="cls-5"
         d="m 542.24615,373.4791 h -7.47 a 1.5,1.5 0 0 1 -1.5,-1.5 v -7.54"
         id="path2344" />
      <path
         class="cls-9"
         d="m 550.65615,367.5491 h -7.47 a 1.52,1.52 0 0 1 -1.51,-1.51 v -7.54"
         id="path2346" />
      <rect
         class="cls-7"
         x="452.92615"
         y="314.36908"
         width="57.619999"
         height="22.9"
         rx="3.03"
         ry="3.03"
         id="rect2348" />
      <polygon
         class="cls-7"
         points="541.91,266.23 548.85,287.25 555.79,266.23 "
         id="polygon2350"
         transform="translate(-67.123848,65.719105)" />
      <polygon
         class="cls-10"
         points="540.91,264.82 535.1,254.75 529.28,264.82 "
         id="polygon2352"
         transform="translate(-67.123848,65.719105)" />
      <polygon
         class="cls-10"
         points="556.79,254.75 562.61,264.82 568.43,254.75 "
         id="polygon2354"
         transform="translate(-67.123848,65.719105)" />
      <circle
         class="cls-10"
         cx="481.72614"
         cy="325.50909"
         r="4.3699999"
         id="circle2356" />
      <rect
         class="cls-8"
         x="440.74615"
         y="265.83911"
         width="39.139999"
         height="25.76"
         rx="2.6500001"
         ry="2.6500001"
         id="rect2358" />
      <line
         class="cls-11"
         x1="441.97617"
         y1="266.64911"
         x2="460.31616"
         y2="278.71909"
         id="line2360" />
      <line
         class="cls-11"
         x1="479.88617"
         y1="265.83911"
         x2="460.31616"
         y2="278.71909"
         id="line2362" />
      <circle
         class="cls-4"
         cx="479.88617"
         cy="265.83911"
         r="5.5999999"
         id="circle2364" />
      <text
         class="cls-12"
         id="text2366"
         x="478.26614"
         y="267.99911">1</text>
      <rect
         class="cls-8"
         x="529.07617"
         y="281.5491"
         width="148.46001"
         height="3.22"
         rx="1.23"
         ry="1.23"
         id="rect2368" />
      <rect
         class="cls-5"
         x="580.54614"
         y="217.6091"
         width="13.99"
         height="63.939999"
         rx="2.5599999"
         ry="2.5599999"
         id="rect2370" />
      <rect
         class="cls-8"
         x="594.53613"
         y="232.59911"
         width="7"
         height="48.950001"
         rx="2.1300001"
         ry="2.1300001"
         id="rect2372" />
      <rect
         class="cls-5"
         x="601.53613"
         y="232.59911"
         width="7"
         height="48.950001"
         rx="2.0599999"
         ry="2.0599999"
         id="rect2374" />
      <rect
         class="cls-8"
         x="452.46869"
         y="469.72937"
         width="7"
         height="48.950001"
         rx="2.2"
         ry="2.2"
         transform="rotate(-24.66)"
         id="rect2376" />
      <circle
         class="cls-8"
         cx="587.53613"
         cy="261.45911"
         r="3.9100001"
         id="circle2378" />
      <rect
         class="cls-8"
         x="583.05615"
         y="267.70911"
         width="8.96"
         height="1.88"
         rx="0.94"
         ry="0.94"
         id="rect2380" />
      <rect
         class="cls-8"
         x="583.05615"
         y="272.5191"
         width="8.96"
         height="1.88"
         rx="0.94"
         ry="0.94"
         id="rect2382" />
      <rect
         class="cls-5"
         x="511.41614"
         y="368.95908"
         width="8.96"
         height="1.88"
         rx="0.94"
         ry="0.94"
         id="rect2384" />
      <rect
         class="cls-5"
         x="511.41614"
         y="373.4791"
         width="8.96"
         height="1.88"
         rx="0.94"
         ry="0.94"
         id="rect2386" />
      <rect
         class="cls-5"
         x="511.00616"
         y="381.20908"
         width="27.73"
         height="1.88"
         rx="0.94"
         ry="0.94"
         id="rect2388" />
      <rect
         class="cls-5"
         x="511.00616"
         y="385.64908"
         width="27.73"
         height="1.88"
         rx="0.94"
         ry="0.94"
         id="rect2390" />
      <rect
         class="cls-5"
         x="511.00616"
         y="390.08908"
         width="27.73"
         height="1.88"
         rx="0.94"
         ry="0.94"
         id="rect2392" />
      <rect
         class="cls-5"
         x="597.30615"
         y="239.25909"
         width="1.46"
         height="35.619999"
         rx="0.73000002"
         ry="0.73000002"
         id="rect2394" />
      <rect
         class="cls-8"
         x="559.30615"
         y="283.15909"
         width="11.24"
         height="4.98"
         rx="2.49"
         ry="2.49"
         id="rect2396" />
      <rect
         class="cls-8"
         x="636.06616"
         y="283.15909"
         width="11.24"
         height="4.98"
         rx="2.49"
         ry="2.49"
         id="rect2398" />
      <rect
         class="cls-8"
         x="360.01617"
         y="288.02908"
         width="60.509998"
         height="41.810001"
         rx="12"
         ry="12"
         id="rect2400" />
      <rect
         class="cls-6"
         x="372.53616"
         y="294.75909"
         width="9.1000004"
         height="28.35"
         id="rect2402" />
      <rect
         class="cls-6"
         x="385.72617"
         y="313.61908"
         width="9.1000004"
         height="9.5"
         id="rect2404" />
      <rect
         class="cls-6"
         x="398.90616"
         y="305.61908"
         width="9.1000004"
         height="17.49"
         id="rect2406" />
      <path
         class="cls-14"
         d="m 418.06615,640.3991 c 0,2.37 -1.39,17.32 1.38,18.7 2.77,1.38 33.22,2.22 34.6,0.83 1.38,-1.39 2.21,-4.29 1,-5.12 -1.21,-0.83 -13,-3.18 -14.6,-4.29 -1.6,-1.11 -3.81,-7 -3,-10.12"
         id="path2412" />
      <path
         class="cls-7"
         d="m 327.02615,444.9691 17.14,-6.15 c -0.74,-31.27 -8.05,-101.14 -18.43,-111.53 -2.44,-2.43 -50.7,-6.67 -59.31,-6.67 -51.38,0 -66.62,5.86 -70.49,9.74 -12,12 -15.74,67.6 -15.74,87.07 0,19.47 55,29.57 55,29.57 l 64.47,4.43 c 0,0 14.14,1.46 26.37,2.18 0.27,-3.75 0.99,-8.64 0.99,-8.64 z"
         id="path2414" />
      <path
         class="cls-14"
         d="m 378.09615,463.0991 c 4.69,-1.39 51.33,-9 61.49,1 10.16,10 42.14,153.37 42.14,156.67 h -25.75 l -34.76,-74.81"
         id="path2416" />
      <path
         class="cls-15"
         d="m 208.28615,450.3491 c -1.17,5.85 -8.2,12.13 -8.2,44 0,44.07 36.1,45 49.06,45 40.38,0 105.71,-12 110.12,-14.2 2.93,4.9 56.86,115 57.11,117.46 h 24.83 c 0,0 -15.39,-164.72 -43.16,-183.4 -9.02,-6 -169.05,-12.42 -189.76,-8.86 z"
         id="path2418" />
      <path
         class="cls-16"
         d="m 353.68615,418.1291 c -6.52,0 -11.9,1.55 -26.66,4.45 l -0.77,28.24 c 14,-5.64 17.25,-13.48 21.31,-13.48 10.14,0 15.44,5.23 21.43,5.23 4.18,0 11.7,-3.28 11.7,-7.74 0,-9.34 -18.93,-16.7 -27.01,-16.7 z"
         id="path2420" />
      <path
         class="cls-14"
         d="m 457.43615,618.7891 c 0,2.38 -1.39,17.32 1.38,18.71 2.77,1.39 33.22,2.21 34.6,0.83 1.38,-1.38 2.21,-4.29 1,-5.12 -1.21,-0.83 -13,-3.19 -14.6,-4.3 -1.6,-1.11 -3.81,-7 -3,-10.12"
         id="path2422" />
      <path
         class="cls-16"
         d="m 275.51615,327.2691 c 0,3.77 -21.89,3.88 -21.89,0 v -30.66 h 21.89 z"
         id="path2424" />
      <path
         class="cls-14"
         d="m 268.38615,306.7191 c -2,0 -14.76,5.64 -14.76,8.79 v -16.64 c 3.18,0 14.76,7.85 14.76,7.85 z"
         id="path2426" />
      <circle
         class="cls-16"
         cx="272.61615"
         cy="281.5191"
         r="26.5"
         id="circle2428" />
      <path
         class="cls-14"
         d="m 299.96615,260.7191 c -3.28,5.21 -10.14,7.6 -17.57,7.6 -6.33,0 -15.55,-1.84 -22.11,1.9 -3.55,2 -7.62,6.55 -8.44,15.66 0,1.56 -1.77,7.61 -1.77,9.56 0,1.33 -1.5,2.2 -4,2.2 -1.29,0 -3.84,-2.09 -3.84,-5.28 0,-3.69 1.47,-5 1.47,-8.13 0,-3.13 -3.83,-6.14 -3.83,-14.84 0,-12.53 8,-20.25 13.66,-20.25 5.16,0 6.78,1.2 7.43,1.71 0,-11.39 15,-16.59 20.95,-16.59 6.8,0 10,2.79 10,6.34 0,5.66 -2.7,10.47 -4.07,11.55 a 16.8,16.8 0 0 1 11.3,-4.31 c 7.79,0 10.41,5.12 10.41,8.62 0,7.61 -9.13,14.66 -12.53,14.66 a 36.33,36.33 0 0 0 -3,-5.19"
         id="path2430" />
      <circle
         class="cls-16"
         cx="252.66617"
         cy="285.0191"
         r="5.6500001"
         id="circle2432" />
      <ellipse
         class="cls-17"
         cx="299.37616"
         cy="284.09909"
         rx="4.3800001"
         ry="2.28"
         id="ellipse2434" />
      <ellipse
         class="cls-17"
         cx="271.82617"
         cy="284.09909"
         rx="4.3800001"
         ry="2.28"
         id="ellipse2436" />
      <path
         class="cls-3"
         d="m 288.67615,279.3691 c 0.82,1.17 5,6.08 0.59,8.07"
         id="path2438" />
      <path
         class="cls-3"
         d="m 280.43615,293.1691 c -1.32,0 -3.35,-1.64 -4.42,-3.11"
         id="path2440" />
      <path
         class="cls-3"
         d="m 315.37615,364.3391 c 2,4.25 11.65,45.25 11.65,58.24"
         id="path2442" />
      <path
         class="cls-16"
         d="m 180.19615,414.1291 c 0,46.09 0.43,59.46 18.93,59.46 42.64,0 107.1,-35 118.59,-35 10.15,0 15.45,5.24 21.44,5.24 4.17,0 11.69,-3.29 11.69,-7.74 0,-9.35 -18.93,-16.71 -27,-16.71 -18.17,0 -90.68,17.52 -92.45,17.52 -1.77,0 -4.75,-0.77 -4.75,-3.75 0,-5.41 3.54,-17.91 4,-19 z"
         id="path2444" />
      <path
         class="cls-3"
         d="m 241.29615,373.9291 c -1.22,3.51 -10.73,39.78 -11.83,44.2"
         id="path2446" />
      <rect
         class="cls-5"
         x="-426.37115"
         y="-791.2287"
         width="10.24"
         height="211.60001"
         rx="5.1199999"
         ry="5.1199999"
         transform="rotate(165.27)"
         id="rect2448" />
      <rect
         class="cls-5"
         x="639.18396"
         y="299.4978"
         width="10.24"
         height="211.60001"
         rx="5.1199999"
         ry="5.1199999"
         transform="rotate(14.73)"
         id="rect2450" />
      <rect
         class="cls-8"
         x="570.85712"
         y="317.45999"
         width="10.24"
         height="211.60001"
         rx="5.1199999"
         ry="5.1199999"
         transform="rotate(14.73)"
         id="rect2452" />
      <rect
         class="cls-8"
         x="-361.81421"
         y="-767.87732"
         width="10.257393"
         height="211.95943"
         rx="5.1286964"
         ry="5.1286964"
         transform="rotate(165.54757)"
         id="rect2454"
         style="stroke-width:1.0017" />
      <rect
         class="cls-5"
         x="291.91638"
         y="390.80008"
         width="10.24"
         height="211.60001"
         rx="5.1199999"
         ry="5.1199999"
         transform="rotate(14.73)"
         id="rect2456" />
      <rect
         class="cls-5"
         x="-78.258217"
         y="-699.72119"
         width="10.24"
         height="211.60001"
         rx="5.1199999"
         ry="5.1199999"
         transform="rotate(165.27)"
         id="rect2458" />
      <rect
         class="cls-8"
         x="82.446159"
         y="443.8591"
         width="504.23001"
         height="15.15"
         rx="4.5300002"
         ry="4.5300002"
         id="rect2460" />
      <rect
         class="cls-8"
         x="221.14714"
         y="409.40869"
         width="10.24"
         height="211.60001"
         rx="5.1199999"
         ry="5.1199999"
         transform="rotate(14.73)"
         id="rect2462" />
      <rect
         class="cls-8"
         x="-7.4876385"
         y="-681.11566"
         width="10.24"
         height="211.60001"
         rx="5.1199999"
         ry="5.1199999"
         transform="rotate(165.27)"
         id="rect2464" />
      <path
         d="m 453.15615,443.8591 h -92.51 l 16.76,-57.64 a 6.73,6.73 0 0 1 6.48,-4.79 h 78.5 a 6.62,6.62 0 0 1 6.48,8.41 z"
         id="path2466" />
      <circle
         class="cls-10"
         cx="418.25616"
         cy="412.6391"
         r="5.6599998"
         id="circle2468" />
      <rect
         x="306.72617"
         y="439.80908"
         width="64.910004"
         height="4.0500002"
         id="rect2470" />
    </g>
    <path
       style="fill:#0a2540;fill-opacity:1;stroke-width:0.188988"
       d="m 104.99314,223.63729 c -0.11424,-0.0414 -0.92216,-2.33138 -1.79538,-5.0889 l -1.58767,-5.01367 -2.834825,-1.81374 c -1.559152,-0.99756 -2.919867,-1.81394 -3.023812,-1.81418 -0.103941,-2.5e-4 -1.411623,0.78212 -2.905955,1.73858 -1.494333,0.95647 -2.739845,1.71434 -2.767807,1.68417 -0.02796,-0.0302 -0.142758,-0.39128 -0.255103,-0.80247 -0.19104,-0.69921 -0.06202,-1.19476 1.992696,-7.65402 1.208329,-3.79852 2.231639,-7.0015 2.274023,-7.11772 0.05249,-0.14392 -0.659504,-0.25528 -2.232354,-0.34915 -2.370118,-0.14146 -5.980617,-0.5582 -6.129964,-0.70755 -0.150323,-0.15032 -1.249521,-4.52992 -1.159515,-4.61993 0.04816,-0.0481 0.61932,0.087 1.269254,0.30038 0.649935,0.21336 2.105056,0.4906 3.233605,0.61609 3.082792,0.34279 10.306888,-0.10622 17.472127,-1.08597 l 2.09756,-0.28681 1.31532,0.48754 c 1.44555,0.53582 2.33257,1.22417 2.33257,1.81015 0,1.58903 -5.33322,3.05398 -12.71957,3.49387 -1.672791,0.0996 -2.207932,0.19227 -2.139576,0.3704 0.408566,1.06471 8.055576,25.24577 8.055576,25.47302 0,0.33955 -0.1922,0.48821 -0.4912,0.37991 z M 93.814328,210.67351 c 0.805561,-0.51311 1.464656,-0.99462 1.464656,-1.07001 0,-0.10876 -1.613815,-1.21046 -3.131314,-2.13765 -0.161192,-0.0985 -0.482778,0.65589 -1.099593,2.57944 -0.479475,1.49524 -0.87177,2.77238 -0.87177,2.83808 0,0.0657 0.489005,-0.19473 1.086681,-0.57874 0.597675,-0.38401 1.745776,-1.11801 2.55134,-1.63112 z m 6.668352,-0.60108 c -0.617861,-1.9525 -0.940938,-2.7221 -1.101815,-2.62465 -1.441564,0.87318 -3.062447,2.02098 -3.062447,2.16861 0,0.18652 4.858952,3.38622 4.976072,3.27682 0.0343,-0.032 -0.331,-1.3014 -0.81181,-2.82078 z m -2.855167,-1.83585 c 0.995066,-0.64012 1.804133,-1.2567 1.797929,-1.37016 -0.0062,-0.11347 -0.668878,-2.24738 -1.472608,-4.74203 l -1.46133,-4.53571 h -0.729867 -0.729869 l -1.479724,4.63021 c -0.813851,2.54661 -1.459844,4.69279 -1.435545,4.76929 0.04728,0.14883 3.359449,2.3697 3.573886,2.39635 0.07035,0.009 0.942065,-0.50783 1.937128,-1.14795 z"
       id="path3188" />
    <path
       style="fill:#0a2540;fill-opacity:1;stroke-width:0.188988"
       d="m 86.088833,223.48506 c -0.09593,-0.24999 1.672553,-6.25204 1.912977,-6.49247 0.037,-0.037 0.124119,0.31182 0.193601,0.77514 0.104521,0.69701 -0.01537,1.27679 -0.694528,3.3589 -0.787239,2.41343 -1.155145,3.02791 -1.41205,2.35843 z"
       id="path3190" />
    <path
       style="fill:#0a2540;fill-opacity:1;stroke-width:0.188988"
       d="m 81.19937,195.59788 c -1.082749,-0.4179 -1.984375,-1.17631 -1.984375,-1.66917 0,-0.18556 0.191352,-0.51235 0.425225,-0.7262 0.493435,-0.45118 1.649807,-1.06683 1.772807,-0.94383 0.07554,0.0755 1.014767,3.44712 1.014767,3.64275 0,0.13644 -0.245819,0.0757 -1.228424,-0.30355 z"
       id="path3192" />
    <path
       style="fill:#0a2540;fill-opacity:1;stroke-width:0.188988"
       d="m 41.104116,223.8391 c -0.270089,-0.41221 -0.288594,-0.61778 -0.114842,-1.27567 4.445172,-16.83106 13.279294,-50.59057 13.279294,-50.74669 0,-0.15049 -0.913424,-0.21392 -3.080507,-0.21392 -2.143963,0 -3.149451,-0.069 -3.307291,-0.22679 -0.134641,-0.13464 -0.226785,-0.78297 -0.226785,-1.59568 0,-1.20034 0.05172,-1.40512 0.420026,-1.66309 0.378203,-0.26491 6.965534,-0.29421 66.154419,-0.29421 h 65.7344 l 0.48564,0.48565 c 0.43524,0.43524 0.47735,0.60031 0.40572,1.5905 -0.1349,1.86501 1.08127,1.70362 -12.83793,1.70362 -6.7436,0 -12.26109,0.0567 -12.26109,0.12612 0,0.11814 3.0804,12.10605 9.93583,38.66701 1.60345,6.21246 2.91536,11.53582 2.91536,11.82972 0,1.08791 -1.58438,1.6293 -2.15001,0.73466 -0.14787,-0.23387 -1.30301,-4.46484 -2.56699,-9.40215 -1.26398,-4.93732 -2.50485,-9.74234 -2.75748,-10.67783 -0.25264,-0.93549 -2.16235,-8.32857 -4.24379,-16.42906 -2.08144,-8.10049 -3.8271,-14.77083 -3.87924,-14.82297 -0.0521,-0.0521 -0.17019,-0.0154 -0.26233,0.0816 -0.0921,0.097 -1.36194,4.72628 -2.82177,10.28725 -1.45983,5.56098 -3.54789,13.51265 -4.64012,17.67039 -1.09222,4.15774 -2.03104,7.77214 -2.08624,8.03199 -0.0552,0.25986 -0.40038,1.57806 -0.76706,2.92932 -0.36669,1.35126 -1.2738,4.75305 -2.01581,7.55952 -0.74202,2.80648 -1.43574,5.29607 -1.5416,5.53244 -0.35491,0.79241 -1.47114,0.81401 -2.04869,0.0396 -0.35442,-0.4752 -0.35216,-0.48508 3.15472,-13.79614 6.61597,-25.11217 9.91659,-37.78512 9.91659,-38.07539 0,-0.26066 -4.63345,-0.28642 -45.08578,-0.25066 -24.797176,0.0219 -45.117091,0.0905 -45.155363,0.15244 -0.03827,0.0619 2.943744,11.57371 6.626704,25.58174 3.682958,14.00803 6.696289,25.6634 6.696289,25.90082 0,0.91124 -1.510408,1.45061 -2.102977,0.75097 -0.142655,-0.16843 -3.329963,-11.96775 -7.082906,-26.2207 -4.957495,-18.82762 -6.862368,-25.79209 -6.965556,-25.46697 -0.07811,0.24612 -3.148279,11.8858 -6.822588,25.86595 -4.143356,15.76481 -6.80249,25.55319 -7.001605,25.77321 -0.491236,0.54281 -1.501066,0.47014 -1.898642,-0.13664 z"
       id="path3194" />
    <path
       style="fill:#0a2540;fill-opacity:1;stroke-width:0.188988"
       d="m 185.5564,224.09426 c -0.22604,-0.16681 -2.31937,-7.84058 -7.12317,-26.11226 -3.74169,-14.23181 -6.80306,-25.95059 -6.80306,-26.04174 0,-0.0911 0.57151,-0.14058 1.27003,-0.10984 l 1.27003,0.0559 6.6697,25.3244 c 3.66834,13.92843 6.68165,25.55854 6.69625,25.84469 0.052,1.0187 -1.15142,1.65017 -1.97978,1.03887 z"
       id="path3196" />
    <path
       style="fill:#0a2540;fill-opacity:1;stroke-width:0.188988"
       d="m 163.43715,200.89597 c -0.0608,-0.15591 -0.35028,-1.2531 -0.64329,-2.43819 l -0.53276,-2.15471 3.21988,-12.2547 3.21987,-12.25471 1.27567,-10e-4 c 0.70162,-5.3e-4 1.27567,0.0478 1.27567,0.10728 0,0.11361 -7.52187,28.763 -7.63767,29.09045 -0.0368,0.10395 -0.11658,0.0614 -0.17737,-0.0945 z"
       id="path3198" />
    <path
       style="fill:#0a2540;fill-opacity:1;stroke-width:0.188988"
       d="m 90.307879,224.05709 c -0.368162,-0.36816 -0.184034,0.29154 -4.380905,-15.69609 -1.9373,-7.37998 -4.330083,-16.47976 -5.317299,-20.22172 -1.561634,-5.91927 -3.469079,-13.17775 -4.065035,-15.46886 -0.104118,-0.40028 -0.218352,-0.69793 -0.253851,-0.66146 -0.0355,0.0365 -1.871449,6.95494 -4.079883,15.37436 -2.208432,8.41942 -4.073718,15.37525 -4.145079,15.45739 -0.07136,0.0821 -0.400836,-0.90298 -0.732168,-2.18918 l -0.602425,-2.33853 3.47367,-13.21335 3.473667,-13.21335 2.626471,-0.051 2.626473,-0.051 2.415181,9.2169 c 1.328348,5.0693 4.369482,16.65824 6.758074,25.7532 4.328499,16.48147 4.341731,16.53785 3.991729,17.00892 -0.420775,0.56633 -1.361532,0.72082 -1.78862,0.29373 z"
       id="path3200" />
    <path
       style="fill:#0a2540;fill-opacity:1;stroke-width:0.188988"
       d="m 60.628961,223.98489 c -0.172027,-0.19009 -0.317365,-0.50901 -0.32298,-0.70871 -0.0127,-0.45213 4.793848,-18.97605 4.924232,-18.97742 0.05215,-5.3e-4 0.363479,1.05409 0.691833,2.34364 l 0.597003,2.34465 -1.939743,7.38267 c -1.066858,4.06048 -2.047692,7.51275 -2.179632,7.67173 -0.331922,0.39994 -1.388115,0.3662 -1.770713,-0.0566 z"
       id="path3202" />
    <path
       style="fill:#0a2540;fill-opacity:1;stroke-width:0.188988"
       d="m 18.785867,224.8915 c -0.233974,-0.094 -0.54763,-0.45009 -0.697008,-0.79122 -0.217953,-0.49773 -1.432319,-10.45582 -1.429623,-11.72328 5.29e-4,-0.30966 0.500544,-0.33073 7.845941,-0.33073 h 7.845239 l -0.102491,0.7087 c -0.05637,0.38979 -0.35142,3.06407 -0.655662,5.94283 -0.304241,2.87877 -0.658505,5.4028 -0.787249,5.60895 -0.128743,0.20615 -0.434014,0.46592 -0.678381,0.57726 -0.548796,0.25005 -10.72058,0.25677 -11.340766,0.007 z"
       id="path3204" />
    <path
       style="fill:#0a2540;fill-opacity:1;stroke-width:0.188988"
       d="m 18.705735,224.70127 c -0.174104,-0.10159 -0.406302,-0.46044 -0.515996,-0.79746 -0.246898,-0.75856 -1.340813,-9.5061 -1.340813,-10.72188 v -0.8875 l 2.976563,-0.12345 c 1.637109,-0.0679 5.081418,-0.12373 7.654017,-0.12408 4.514927,-5.3e-4 4.677455,0.0122 4.677455,0.36864 0,0.50276 -0.894633,8.43957 -1.158333,10.27624 -0.334713,2.33128 0.03232,2.20675 -6.484072,2.19993 -3.223286,-0.003 -5.623044,-0.082 -5.808821,-0.19044 z"
       id="path3206" />
    <path
       style="fill:#0a2540;fill-opacity:1;stroke-width:0.188988"
       d="m 13.74412,211.5603 c -0.216511,-0.21651 -0.296979,-0.6762 -0.296979,-1.69654 0,-1.25081 0.04608,-1.42974 0.433549,-1.68362 0.422855,-0.27707 3.536471,-0.32551 18.984976,-0.29539 2.485456,0.005 2.69308,0.16316 2.69308,2.05336 0,2.08703 0.971275,1.91917 -11.10443,1.91917 -9.214572,0 -10.447398,-0.0342 -10.710196,-0.29698 z"
       id="path3208" />
    <path
       style="fill:#0a2540;fill-opacity:1;stroke-width:0.188988"
       d="m 191.60093,124.59203 c -0.58582,-0.98518 -5.02488,-11.07025 -4.93599,-11.21407 0.23516,-0.38051 1.07733,-0.58357 1.33537,-0.32197 0.13238,0.1342 1.35485,2.66777 2.71659,5.63016 l 2.4759,5.38616 -0.40791,0.33073 c -0.42031,0.34079 -1.03532,0.43896 -1.18396,0.18899 z"
       id="path3210" />
    <path
       style="fill:#0a2540;fill-opacity:1;stroke-width:0.188988"
       d="m 173.80474,126.06049 c -0.1126,-0.35478 -0.32139,-0.37683 -4.02627,-0.42523 -3.55164,-0.0464 -3.91331,-0.0812 -3.97125,-0.38266 -0.0605,-0.31468 0.93332,-0.32915 19.46331,-0.28348 17.20999,0.0424 19.52705,0.0818 19.52705,0.33162 0,0.24143 -0.59251,0.29103 -3.99492,0.33442 -3.80059,0.0485 -3.99969,0.0691 -4.0928,0.42522 -0.0842,0.32218 -0.26066,0.37428 -1.26719,0.37428 -1.01038,0 -1.18275,-0.0514 -1.26816,-0.37797 -0.097,-0.37111 -0.25778,-0.37798 -8.8427,-0.37798 -8.58493,0 -8.74566,0.007 -8.84271,0.37798 -0.0861,0.32927 -0.25778,0.37797 -1.33222,0.37797 -1.06323,0 -1.24977,-0.0516 -1.35214,-0.37417 z"
       id="path3212" />
    <path
       style="fill:#0a2540;fill-opacity:1;stroke-width:0.188988"
       d="m 184.75466,118.40267 c 8e-5,-3.32619 0.0258,-4.66029 0.0572,-2.96466 0.0314,1.69563 0.0313,4.41705 -1.4e-4,6.04762 -0.0314,1.63056 -0.0571,0.24323 -0.057,-3.08296 z"
       id="path3214" />
    <path
       style="fill:#0a2540;fill-opacity:1;stroke-width:0.188988"
       d="m 183.61815,118.30818 c 0,-2.54662 0.0268,-3.58842 0.0594,-2.31511 0.0327,1.27331 0.0327,3.3569 0,4.63021 -0.0327,1.27331 -0.0594,0.23151 -0.0594,-2.3151 z"
       id="path3216" />
    <path
       style="fill:#0a2540;fill-opacity:1;stroke-width:0.188988"
       d="m 183.171,124.37926 c -0.13009,-0.24309 -0.20154,-2.41966 -0.20154,-6.13966 0,-4.98716 0.04,-5.80304 0.29698,-6.06004 0.32277,-0.32277 0.79329,-0.37889 1.1703,-0.13957 0.18627,0.11824 0.22788,1.52203 0.18899,6.37546 l -0.0499,6.22383 -0.60165,0.0583 c -0.44549,0.0432 -0.65397,-0.0395 -0.8032,-0.3183 z m 0.93239,-5.99234 c 0,-3.78391 -0.0514,-4.81785 -0.23624,-4.7563 -0.17828,0.0593 -0.24869,1.18669 -0.287,4.59497 -0.0513,4.56645 -0.0231,4.99627 0.32831,4.99627 0.12883,0 0.19493,-1.63955 0.19493,-4.83494 z"
       id="path3218" />
    <path
       style="fill:#0a2540;fill-opacity:1;stroke-width:0.188988"
       d="m 179.60547,124.50699 c -0.16924,-0.16924 -0.22679,-2.25379 -0.22679,-8.21434 0,-7.96339 0.001,-7.9882 0.40364,-8.20357 0.43347,-0.23198 2.69157,-0.16673 2.94365,0.0851 0.23911,0.23885 0.29072,15.74026 0.0539,16.18282 -0.17304,0.32333 -0.39651,0.3768 -1.57462,0.3768 -0.81588,0 -1.46499,-0.092 -1.59975,-0.22678 z m 2.70253,-1.85209 c 0,-0.22041 -0.2517,-0.28348 -1.13134,-0.28348 -0.93915,0 -1.14247,0.0578 -1.19685,0.34015 -0.0584,0.30323 0.0644,0.33401 1.13134,0.28349 0.91268,-0.0432 1.19685,-0.12398 1.19685,-0.34016 z m 0.0945,-1.22842 c 0,-0.22291 -0.26248,-0.28348 -1.22842,-0.28348 -0.96594,0 -1.22842,0.0606 -1.22842,0.28348 0,0.22291 0.26248,0.28348 1.22842,0.28348 0.96594,0 1.22842,-0.0606 1.22842,-0.28348 z m -0.48597,-1.14743 c 0.88703,-0.88702 -0.27598,-2.38191 -1.32059,-1.69745 -0.6009,0.39373 -0.74393,0.97292 -0.37812,1.53121 0.35554,0.54263 1.23615,0.6288 1.69871,0.16624 z"
       id="path3220" />
    <path
       style="fill:#0a2540;fill-opacity:1;stroke-width:0.188988"
       d="m 184.97788,124.44481 c -0.0652,-0.16991 -0.11854,-2.97788 -0.11854,-6.23994 0,-5.82557 0.007,-5.93478 0.39558,-6.14272 0.21756,-0.11644 0.59575,-0.16147 0.84041,-0.10006 l 0.44483,0.11164 -0.0372,6.28278 -0.0372,6.28277 -0.68466,0.0572 c -0.49601,0.0414 -0.71732,-0.0279 -0.8032,-0.25169 z"
       id="path3222" />
    <path
       style="fill:#0a2540;fill-opacity:1;stroke-width:0.188988"
       d="m 183.59498,117.07975 c 0.001,-0.62366 0.0363,-0.85601 0.0784,-0.51633 0.0421,0.33968 0.0412,0.84995 -0.002,1.13393 -0.0431,0.28398 -0.0775,0.006 -0.0765,-0.6176 z"
       id="path3224" />
    <path
       style="fill:#0a2540;fill-opacity:1;stroke-width:0.714286"
       d=""
       id="path3226"
       transform="scale(0.26458333)" />
    <path
       style="fill:#0a2540;fill-opacity:1;stroke-width:0.188988"
       d="m 183.75467,118.48141 c 0.0219,-3.31888 0.063,-4.02379 0.16423,-2.81907 0.12897,1.53509 0.0387,7.0012 -0.11836,7.1658 -0.0413,0.0433 -0.062,-1.91272 -0.0459,-4.34673 z"
       id="path3228" />
    <path
       style="fill:#0a2540;fill-opacity:1;stroke-width:0.188988"
       d="m 142.5638,127.15282 c -0.34898,-0.34898 -0.31965,-6.0859 0.0304,-5.95156 0.14147,0.0543 1.29662,0.78344 2.56699,1.62035 l 2.30978,1.52164 1.95826,-1.31386 1.95827,-1.31385 0.57623,0.32794 0.57622,0.32794 0.001,2.27731 c 7.9e-4,1.52071 -0.0742,2.35265 -0.22559,2.50409 -0.32248,0.32248 -9.42931,0.32248 -9.75179,0 z"
       id="path3230" />
    <path
       style="fill:#0a2540;fill-opacity:1;stroke-width:0.714286"
       d=""
       id="path3232"
       transform="scale(0.26458333)" />
    <path
       style="fill:#0a2540;fill-opacity:1;stroke-width:0.188988"
       d="m 145.07734,122.2708 -2.26785,-1.49804 4.09027,-0.004 c 5.01948,-0.005 5.08555,0.0384 2.60894,1.70366 -0.93409,0.62808 -1.80301,1.17669 -1.93092,1.21913 -0.12792,0.0424 -1.25312,-0.59695 -2.50044,-1.42088 z"
       id="path3234" />
    <path
       style="fill:#0a2540;fill-opacity:1;stroke-width:0.188988"
       d="m 123.18405,137.30929 c -0.39964,-0.14249 -0.94213,-0.45767 -1.20553,-0.70041 -0.85797,-0.79065 -0.99716,-1.42763 -0.99716,-4.56327 0,-2.66163 0.0364,-2.97562 0.43349,-3.73859 0.30802,-0.59183 0.67518,-0.95601 1.26847,-1.25815 0.80817,-0.41157 1.00835,-0.42522 6.23554,-0.42522 5.22474,0 5.42802,0.0138 6.24381,0.42522 0.61602,0.31064 0.95783,0.65246 1.26847,1.26847 0.38542,0.76432 0.42522,1.11253 0.42522,3.72021 0,1.58234 -0.0903,3.11638 -0.20058,3.40899 -0.29831,0.79124 -1.29901,1.73913 -2.05889,1.95023 -1.0726,0.29797 -10.5352,0.22544 -11.41284,-0.0875 z m 3.46695,-5.20498 v -3.77977 h -1.22842 -1.22842 v 3.77977 3.77976 h 1.22842 1.22842 z m 3.59078,2.45684 v -1.32291 h -1.32292 -1.32292 v 1.32291 1.32292 h 1.32292 1.32292 z m 3.40178,-1.03943 v -2.36236 h -1.22842 -1.22842 v 2.36236 2.36235 h 1.22842 1.22842 z"
       id="path3236" />
    <path
       style="fill:#0a2540;fill-opacity:1;stroke-width:0.188988"
       d="m 160.18778,159.4588 c -0.0502,-0.13078 -0.0688,-3.00103 -0.0413,-6.37835 l 0.0499,-6.14058 3.25091,-0.0517 3.25092,-0.0517 0.0564,1.1856 0.0564,1.1856 1.08669,0.0567 1.08668,0.0567 v 5.07302 c 0,4.4516 -0.0366,5.08708 -0.29894,5.18774 -0.16442,0.0631 -2.12311,0.11472 -4.35266,0.11472 -3.08259,0 -4.07558,-0.057 -4.14496,-0.23777 z m 8.00477,-5.66811 c 0.0588,-0.30588 -0.21438,-0.33073 -3.63558,-0.33073 -2.95661,0 -3.69912,0.0506 -3.69912,0.25198 0,0.1386 0.0585,0.3105 0.13003,0.38202 0.0715,0.0715 1.70753,0.10695 3.63558,0.0787 3.16463,-0.0463 3.51173,-0.0834 3.56909,-0.38202 z m 0.0358,-1.18118 c 0,-0.24229 -0.53547,-0.28348 -3.68527,-0.28348 -3.14981,0 -3.68527,0.0412 -3.68527,0.28348 0,0.2423 0.53546,0.28349 3.68527,0.28349 3.1498,0 3.68527,-0.0412 3.68527,-0.28349 z m 0,-1.13392 c 0,-0.2423 -0.53547,-0.28349 -3.68527,-0.28349 -3.14981,0 -3.68527,0.0412 -3.68527,0.28349 0,0.24229 0.53546,0.28348 3.68527,0.28348 3.1498,0 3.68527,-0.0412 3.68527,-0.28348 z m -4.86474,-2.07887 c -0.0251,-0.10395 -0.59909,-0.21414 -1.27567,-0.24487 -1.02226,-0.0464 -1.23013,-0.005 -1.23013,0.24487 0,0.25082 0.21176,0.29147 1.27567,0.24487 0.72783,-0.0319 1.25611,-0.13705 1.23013,-0.24487 z m 0.0455,-1.22843 c 0,-0.21342 -0.27535,-0.29769 -1.11423,-0.34098 -1.12041,-0.0578 -1.59278,0.1252 -1.34748,0.5221 0.21047,0.34056 2.46171,0.17493 2.46171,-0.18112 z"
       id="path3238" />
    <path
       style="fill:#55b79d;fill-opacity:1;stroke-width:0.188988"
       d="m 155.83071,224.18586 c -0.75756,-0.50584 -0.74261,-0.58703 2.10032,-11.40611 1.50889,-5.74226 2.77095,-10.46799 2.80456,-10.5016 0.0336,-0.0336 0.33651,1.06615 0.67312,2.44391 l 0.612,2.50501 -2.16817,8.18438 c -1.32193,4.99001 -2.29791,8.32775 -2.5006,8.55171 -0.33255,0.36746 -1.12967,0.48415 -1.52123,0.2227 z"
       id="path3240" />
    <path
       style="fill:#55b79d;fill-opacity:1;stroke-width:0.267269"
       d="m 140.6424,202.01994 c -0.32376,-0.70115 -0.89122,-3.01876 -1.26102,-5.15023 -2.16635,-12.48632 -4.64174,-20.79672 -7.11384,-23.88259 l -0.82597,-1.03104 4.24522,0.10512 c 4.39917,0.10892 5.57792,0.38914 6.43747,1.53032 0.50255,0.66721 1.61853,3.80961 2.86935,8.07959 l 1.14571,3.91118 -2.26747,8.65049 c -1.24711,4.75777 -2.35148,8.74308 -2.45414,8.85624 -0.10266,0.11315 -0.45155,-0.36793 -0.77531,-1.06908 z"
       id="path3242" />
    <path
       style="fill:#55b79d;fill-opacity:1;stroke-width:0.267269"
       d="m 148.88554,219.13065 c -1.82813,-0.12334 -2.13815,-0.49414 -2.13815,-2.55732 0,-1.3769 -0.20238,-1.997 -1.60362,-4.91351 -0.88199,-1.83575 -1.60362,-3.58227 -1.60362,-3.88115 0,-0.52363 3.94965,-15.7495 4.13305,-15.93291 0.0969,-0.0969 0.59879,1.9644 3.2079,13.17567 0.92367,3.96895 1.76513,7.72743 1.86993,8.35217 0.18435,1.099 0.16749,1.1359 -0.51913,1.1359 -0.61329,0 -0.68424,0.0817 -0.52235,0.60136 0.50514,1.62153 0.64157,1.78089 1.77466,2.07291 2.70161,0.69625 2.87219,0.78785 2.63985,1.41753 -0.20254,0.54889 -0.38923,0.58676 -2.99228,0.60697 -1.52694,0.0119 -3.43775,-0.0231 -4.24624,-0.0776 z"
       id="path3244" />
    <path
       style="fill:#55b79d;fill-opacity:1;stroke-width:0.267269"
       d="m 138.64479,224.33932 c 0.30669,-0.33496 0.62442,-0.84957 0.70606,-1.14356 0.0816,-0.294 0.28253,-1.05319 0.44641,-1.68709 0.24659,-0.95383 0.39637,-1.13815 0.86874,-1.06907 0.38308,0.056 0.64153,0.35804 0.78595,0.91848 0.28144,1.09215 0.54139,1.2694 2.70249,1.84281 1.56843,0.41616 1.80609,0.55847 1.73725,1.0403 -0.0761,0.53262 -0.25665,0.5616 -3.94213,0.63267 l -3.86238,0.0745 z"
       id="path3246" />
    <path
       style="fill:#0a2540;fill-opacity:1;stroke-width:0.267269"
       d="m 155.75773,223.96529 c -0.47238,-0.47238 0.005,-2.57387 3.96791,-17.46589 l 1.02915,-3.86741 0.56759,2.2638 0.56758,2.2638 -1.1833,4.54297 c -0.65081,2.49863 -1.68253,6.28718 -2.29271,8.41899 -1.03245,3.60712 -1.15646,3.8815 -1.78759,3.95511 -0.373,0.0435 -0.76388,-0.007 -0.86863,-0.11137 z"
       id="path3248" />
  </g>
</svg>
